<svg width="259" height="218" viewBox="0 0 259 218" fill="none" xmlns="http://www.w3.org/2000/svg">
  <g clip-path="url(#clip0_110_440)">
    <path
      d="M115.741 0.141693C113.474 0.526291 112.847 1.05257 109.67 5.34373C108.517 6.88208 106.453 9.3313 105.097 10.7482C102.244 13.7439 101.131 15.343 99.108 19.3306C98.3189 20.8891 97.1048 22.974 96.4168 23.9861C95.0207 26.0102 93.2603 28.9452 92.7544 30.1192C92.5318 30.6253 92.3902 31.5564 92.3699 32.8923C92.2688 37.5883 91.8236 44.5311 91.5403 45.7456C91.2166 47.2637 90.2453 49.2271 87.6351 53.741C84.4785 59.1454 82.9812 61.2708 79.1164 65.8858C75.6159 70.0555 73.6329 72.5655 71.6297 75.379C70.6787 76.6947 69.7277 77.889 69.5051 78.0307C69.2825 78.1723 68.372 78.4557 67.4817 78.6379C63.0301 79.5892 56.4944 81.7955 53.6211 83.3137C51.7798 84.265 51.2739 84.852 50.8692 86.4308C50.6871 87.1595 50.3836 88.0704 50.1813 88.455C49.9789 88.8396 48.7649 91.8758 47.4496 95.2156C45.6892 99.6687 44.6573 102.017 43.4635 104.102C40.2462 109.83 39.0726 111.166 37.1099 111.409C36.5028 111.469 35.6935 111.672 35.309 111.814C34.2771 112.259 33.0225 113.494 32.8809 114.222C32.7999 114.587 32.1322 115.862 31.3633 117.097C29.8862 119.505 27.5592 123.614 26.5273 125.659C25.2121 128.27 18.5752 138.694 16.5315 141.346C15.5805 142.621 15.3579 142.783 14.1641 143.188C12.0597 143.916 8.07354 145.981 7.89143 146.447C7.8105 146.669 7.58792 148.349 7.40581 150.191C6.77854 156.405 5.82753 159.118 1.71995 166.263C0.344012 168.651 -0.0606752 169.866 0.0404967 171.161L0.1012 171.951L1.31526 171.91C2.81261 171.87 5.30143 170.999 7.46651 169.765C10.8861 167.781 12.9905 166.769 14.6699 166.283C17.0576 165.595 18.1907 165.615 19.506 166.384C21.7115 167.639 24.5646 167.923 27.3164 167.174C28.3484 166.911 29.9267 166.708 32.1727 166.607C36.4826 166.384 36.9885 166.182 40.0641 163.632C41.3389 162.559 42.7148 161.526 43.0992 161.324C46.357 159.644 53.4997 159.259 57.5466 160.514C58.8821 160.939 59.0642 161.081 61.5125 163.51C62.9087 164.927 65.1952 167.396 66.5711 169.016C70.8203 173.975 73.1473 176.04 75.798 177.254C76.4657 177.537 77.356 178.023 77.8012 178.327C80.0067 179.825 80.5328 179.966 84.5595 180.25C88.9706 180.553 89.9621 180.837 92.8353 182.557C96.2752 184.602 98.2581 186.444 104.976 193.71C108.315 197.334 112.544 201.281 113.616 201.787C114.871 202.374 119.686 204.013 121.609 204.519C123.996 205.147 127.031 206.807 128.589 208.385C129.277 209.053 131.018 210.936 132.495 212.575C133.952 214.195 135.449 215.773 135.833 216.057C137.331 217.211 140.669 217.595 148.864 217.595C152.183 217.595 156.048 217.696 157.464 217.818C159.791 218.04 160.135 218.02 160.964 217.696C162.199 217.231 163.554 215.854 165.558 213.021C167.379 210.409 167.885 210.025 170.475 209.215C171.77 208.81 173.267 208.588 177.82 208.183C183.748 207.636 192.085 206.422 195.768 205.552C200.078 204.539 201.656 203.608 207.787 198.467C212.987 194.115 216.447 191.868 219.988 190.512C220.818 190.188 222.072 189.52 222.801 189.055C224.318 188.022 228.041 184.46 228.041 184.055C228.041 183.893 227.353 182.8 226.524 181.586C224.723 178.975 223.995 177.578 223.995 176.728C223.995 176.384 224.015 176.1 224.055 176.1C224.075 176.1 225.188 175.959 226.524 175.797C227.839 175.635 229.863 175.493 230.975 175.493C234.537 175.493 241.679 174.056 244.108 172.841C245.767 172.012 246.475 171.344 247.385 169.684C247.79 168.975 248.276 168.307 248.478 168.206C248.68 168.105 249.834 167.923 251.068 167.801C257.584 167.194 260.416 164.421 258.17 160.879C257.806 160.292 255.884 158.166 253.921 156.162C251.979 154.159 249.834 151.831 249.186 151.001C248.519 150.171 247.203 148.653 246.252 147.661C245.301 146.649 243.5 144.362 242.246 142.56C240.991 140.779 238.867 138.087 237.511 136.609C225.795 123.655 219.179 114.506 210.316 99.021C208.819 96.4301 207.139 93.2522 206.593 91.9567C204.934 88.1716 202.647 84.9532 200.118 82.8481C198.783 81.7348 196.658 80.4191 194.351 79.2451C193.076 78.6176 191.842 78.5772 191.296 79.1642C190.709 79.8119 190.345 79.9536 188.544 80.1762C186.197 80.4596 185.064 80.824 181.927 82.2813C179.135 83.5768 177.132 84.4067 176.727 84.4067C176.606 84.4067 176.322 84.0423 176.08 83.6173C174.117 80.1358 169.746 74.3062 166.63 71.0271C162.705 66.8979 162.158 66.1287 159.083 60.4206C155.865 54.4292 153.903 50.9274 153.356 50.2189C153.134 49.9558 152.972 49.5712 152.972 49.3688C152.972 48.7818 151.819 47.6281 150.685 47.0815C150.099 46.7982 148.864 46.4338 147.934 46.2921L146.214 46.029L143.927 40.7865C141.378 34.9164 137.31 26.6175 135.267 23.0752C133.527 20.039 130.451 15.4037 128.529 12.8533C125.777 9.23009 121.669 4.16974 120.718 3.23863C119.828 2.38849 119.788 2.30753 119.788 1.17401V1.52588e-05L118.027 0.0202484C117.036 0.0404968 116.024 0.101212 115.741 0.141693Z"
      fill="#1057A2" fill-opacity="0.05" />
  </g>
  <defs>
    <clipPath id="clip0_110_440">
      <rect width="259" height="218" fill="white" />
    </clipPath>
  </defs>
</svg>
