<svg width="259" height="218" fill="none" xmlns="http://www.w3.org/2000/svg">
  <g clip-path="url(#prefix__clip0_110_440)">
    <path
      d="M115.741.142c-2.267.384-2.894.91-6.071 5.202-1.153 1.538-3.217 3.987-4.573 5.404-2.853 2.996-3.966 4.595-5.989 8.583-.79 1.558-2.003 3.643-2.691 4.655-1.396 2.024-3.157 4.96-3.663 6.133-.222.506-.364 1.437-.384 2.773-.101 4.696-.546 11.64-.83 12.854-.323 1.518-1.295 3.481-3.905 7.995-3.157 5.404-4.654 7.53-8.519 12.145-3.5 4.17-5.483 6.68-7.486 9.493-.951 1.316-1.902 2.51-2.125 2.652-.222.141-1.133.425-2.023.607-4.452.951-10.988 3.157-13.86 4.676-1.842.951-2.348 1.538-2.753 3.117-.182.728-.485 1.64-.688 2.024-.202.385-1.416 3.42-2.731 6.76-1.76 4.454-2.793 6.802-3.986 8.887-3.218 5.728-4.391 7.064-6.354 7.307a8.782 8.782 0 00-1.801.405c-1.032.445-2.286 1.68-2.428 2.408-.081.365-.749 1.64-1.518 2.875-1.477 2.408-3.804 6.517-4.836 8.562-1.315 2.611-7.952 13.035-9.995 15.687-.951 1.275-1.174 1.437-2.368 1.842-2.104.728-6.09 2.793-6.273 3.259-.08.222-.303 1.902-.485 3.744-.627 6.214-1.578 8.927-5.686 16.072-1.376 2.388-1.78 3.603-1.68 4.898l.061.79 1.214-.041c1.498-.04 3.986-.911 6.152-2.145 3.42-1.984 5.524-2.996 7.203-3.482 2.388-.688 3.52-.668 4.836.101 2.206 1.255 5.059 1.539 7.81.79 1.032-.263 2.61-.466 4.857-.567 4.31-.223 4.816-.425 7.891-2.975 1.275-1.073 2.65-2.106 3.035-2.308 3.258-1.68 10.4-2.065 14.448-.81 1.335.425 1.517.567 3.966 2.996 1.396 1.417 3.682 3.886 5.058 5.506 4.25 4.959 6.576 7.024 9.227 8.238.668.283 1.558.769 2.003 1.073 2.206 1.498 2.732 1.639 6.758 1.923 4.412.303 5.403.587 8.276 2.307 3.44 2.045 5.423 3.887 12.141 11.153 3.339 3.624 7.568 7.571 8.64 8.077 1.255.587 6.07 2.226 7.993 2.732 2.387.628 5.422 2.288 6.98 3.866.688.668 2.429 2.551 3.906 4.19 1.457 1.62 2.954 3.198 3.338 3.482 1.498 1.154 4.836 1.538 13.031 1.538 3.319 0 7.184.101 8.6.223 2.327.222 2.671.202 3.5-.122 1.235-.465 2.59-1.842 4.594-4.675 1.821-2.612 2.327-2.996 4.917-3.806 1.295-.405 2.792-.627 7.345-1.032 5.928-.547 14.265-1.761 17.948-2.631 4.31-1.013 5.888-1.944 12.019-7.085 5.2-4.352 8.66-6.599 12.201-7.955.83-.324 2.084-.992 2.813-1.457 1.517-1.033 5.24-4.595 5.24-5 0-.162-.688-1.255-1.517-2.469-1.801-2.611-2.529-4.008-2.529-4.858 0-.344.02-.628.06-.628.02 0 1.133-.141 2.469-.303 1.315-.162 3.339-.304 4.451-.304 3.562 0 10.704-1.437 13.133-2.652 1.659-.829 2.367-1.497 3.277-3.157.405-.709.891-1.377 1.093-1.478.202-.101 1.356-.283 2.59-.405 6.516-.607 9.348-3.38 7.102-6.922-.364-.587-2.286-2.713-4.249-4.717-1.942-2.003-4.087-4.331-4.735-5.161a61.738 61.738 0 00-2.934-3.34c-.951-1.012-2.752-3.299-4.006-5.101-1.255-1.781-3.379-4.473-4.735-5.951-11.716-12.954-18.332-22.103-27.195-37.588-1.497-2.59-3.177-5.769-3.723-7.064-1.659-3.785-3.946-7.004-6.475-9.109-1.335-1.113-3.46-2.429-5.767-3.603-1.275-.627-2.509-.668-3.055-.08-.587.647-.951.789-2.752 1.011-2.347.284-3.48.648-6.617 2.105-2.792 1.296-4.795 2.126-5.2 2.126-.121 0-.405-.365-.647-.79-1.963-3.481-6.334-9.31-9.45-12.59-3.925-4.13-4.472-4.898-7.547-10.606-3.218-5.992-5.18-9.494-5.727-10.202-.222-.263-.384-.648-.384-.85 0-.587-1.153-1.74-2.287-2.288-.586-.283-1.821-.647-2.751-.789l-1.72-.263-2.287-5.243c-2.549-5.87-6.617-14.169-8.66-17.71-1.74-3.037-4.816-7.672-6.738-10.223-2.752-3.623-6.86-8.683-7.811-9.614-.89-.85-.93-.931-.93-2.065V0l-1.761.02c-.991.02-2.003.081-2.286.122z"
      fill="#1057A2" fill-opacity=".05" />
  </g>
  <defs>
    <clipPath id="prefix__clip0_110_440">
      <path fill="#fff" d="M0 0h259v218H0z" />
    </clipPath>
  </defs>
</svg>
